<svg width="140" height="56" viewBox="0 0 140 56" fill="none" xmlns="http://www.w3.org/2000/svg">
<g clip-path="url(#clip0_790_146)">
<path d="M109.5 11.9633C109.5 8.94601 111.946 6.5 114.963 6.5H132.639C135.657 6.5 138.103 8.94601 138.103 11.9633V44.1017C138.103 47.119 135.657 49.565 132.639 49.565H114.963C111.946 49.565 109.5 47.119 109.5 44.1017V11.9633Z" stroke="#3A6775" stroke-width="3" stroke-linecap="round" stroke-linejoin="round"/>
<path d="M1.49979 44L9.3844 12.7187H16.2834L24.2109 44H18.726L17.0119 36.4153H8.69878L6.98474 44H1.49979ZM9.68436 32.0445H16.0263L14.1409 23.6457C13.8266 22.2459 13.5552 20.9889 13.3267 19.8748C13.0982 18.7321 12.941 17.9036 12.8553 17.3894C12.7696 17.9036 12.6125 18.7321 12.384 19.8748C12.184 20.9889 11.9126 22.2316 11.5698 23.6029L9.68436 32.0445ZM40.5633 44.4285C38.6207 44.4285 37.0781 43.8857 35.9354 42.8002C34.7927 41.686 34.2213 40.172 34.2213 38.2579L35.4212 39.5006H34.2213V44H28.9935V12.7187H34.3499V19.3177L34.1785 24.9312H35.4212L34.2213 26.1739C34.2213 24.2599 34.7927 22.7601 35.9354 21.6745C37.0781 20.5604 38.6207 20.0034 40.5633 20.0034C42.9344 20.0034 44.8341 20.8175 46.2625 22.4459C47.6909 24.0742 48.4051 26.2739 48.4051 29.0449V35.4298C48.4051 38.1722 47.6909 40.3577 46.2625 41.986C44.8341 43.6143 42.9344 44.4285 40.5633 44.4285ZM38.6778 39.8006C40.0491 39.8006 41.1204 39.4006 41.8917 38.6008C42.663 37.8009 43.0487 36.6582 43.0487 35.1727V29.2592C43.0487 27.7737 42.663 26.631 41.8917 25.8311C41.1204 25.0312 40.0491 24.6313 38.6778 24.6313C37.3352 24.6313 36.2782 25.0455 35.5069 25.874C34.7355 26.6739 34.3499 27.8023 34.3499 29.2592V35.1727C34.3499 36.6296 34.7355 37.7723 35.5069 38.6008C36.2782 39.4006 37.3352 39.8006 38.6778 39.8006ZM64.2432 44.3857C62.2435 44.3857 60.5009 44.0143 59.0154 43.2715C57.5585 42.5002 56.4158 41.4289 55.5873 40.0577C54.7874 38.6579 54.3875 37.0153 54.3875 35.1298V29.3021C54.3875 27.4166 54.7874 25.7883 55.5873 24.417C56.4158 23.0172 57.5585 21.9459 59.0154 21.2032C60.5009 20.4319 62.2435 20.0462 64.2432 20.0462C66.2715 20.0462 68.0141 20.4319 69.4711 21.2032C70.928 21.9459 72.0564 23.0172 72.8563 24.417C73.6848 25.7883 74.099 27.4023 74.099 29.2592V35.1298C74.099 37.0153 73.6848 38.6579 72.8563 40.0577C72.0564 41.4289 70.928 42.5002 69.4711 43.2715C68.0141 44.0143 66.2715 44.3857 64.2432 44.3857ZM64.2432 39.7149C65.6716 39.7149 66.7715 39.3292 67.5428 38.5579C68.3427 37.758 68.7426 36.6153 68.7426 35.1298V29.3021C68.7426 27.788 68.3427 26.6453 67.5428 25.874C66.7715 25.1026 65.6716 24.717 64.2432 24.717C62.8434 24.717 61.7436 25.1026 60.9437 25.874C60.1438 26.6453 59.7439 27.788 59.7439 29.3021V35.1298C59.7439 36.6153 60.1438 37.758 60.9437 38.5579C61.7436 39.3292 62.8434 39.7149 64.2432 39.7149ZM89.9372 44.3857C87.9375 44.3857 86.1949 44.0143 84.7094 43.2715C83.2524 42.5002 82.1097 41.4289 81.2813 40.0577C80.4814 38.6579 80.0814 37.0153 80.0814 35.1298V29.3021C80.0814 27.4166 80.4814 25.7883 81.2813 24.417C82.1097 23.0172 83.2524 21.9459 84.7094 21.2032C86.1949 20.4319 87.9375 20.0462 89.9372 20.0462C91.9655 20.0462 93.7081 20.4319 95.165 21.2032C96.622 21.9459 97.7504 23.0172 98.5503 24.417C99.3787 25.7883 99.793 27.4023 99.793 29.2592V35.1298C99.793 37.0153 99.3787 38.6579 98.5503 40.0577C97.7504 41.4289 96.622 42.5002 95.165 43.2715C93.7081 44.0143 91.9655 44.3857 89.9372 44.3857ZM89.9372 39.7149C91.3656 39.7149 92.4654 39.3292 93.2367 38.5579C94.0366 37.758 94.4366 36.6153 94.4366 35.1298V29.3021C94.4366 27.788 94.0366 26.6453 93.2367 25.874C92.4654 25.1026 91.3656 24.717 89.9372 24.717C88.5374 24.717 87.4375 25.1026 86.6377 25.874C85.8378 26.6453 85.4378 27.788 85.4378 29.3021V35.1298C85.4378 36.6153 85.8378 37.758 86.6377 38.5579C87.4375 39.3292 88.5374 39.7149 89.9372 39.7149ZM106.204 44V12.7187H111.56V29.6877H115.288L121.03 20.4319H127.03L119.916 31.8303L127.158 44H121.03L115.288 34.2299H111.56V44H106.204Z" fill="#0F1111"/>
</g>
<defs>
<clipPath id="clip0_790_146">
<rect width="140" height="56" fill="white"/>
</clipPath>
</defs>
</svg>
