<svg width="108" height="20" viewBox="0 0 108 20" fill="none" xmlns="http://www.w3.org/2000/svg">
<g clip-path="url(#clip0_795_149)">
<path d="M10 0L13.09 6.26L20 7.27L15 12.14L16.18 19.02L10 15.77L3.82 19.02L5 12.14L0 7.27L6.91 6.26L10 0Z" fill="#FFA41C" stroke="#B20710" stroke-opacity="0.39" stroke-linecap="round" stroke-linejoin="round"/>
<path d="M32 0L35.09 6.26L42 7.27L37 12.14L38.18 19.02L32 15.77L25.82 19.02L27 12.14L22 7.27L28.91 6.26L32 0Z" fill="#FFA41C" stroke="#B20710" stroke-opacity="0.39" stroke-linecap="round" stroke-linejoin="round"/>
<path d="M54 0L57.09 6.26L64 7.27L59 12.14L60.18 19.02L54 15.77L47.82 19.02L49 12.14L44 7.27L50.91 6.26L54 0Z" fill="#FFA41C" stroke="#B20710" stroke-opacity="0.39" stroke-linecap="round" stroke-linejoin="round"/>
<path d="M76 0L79.09 6.26L86 7.27L81 12.14L82.18 19.02L76 15.77L69.82 19.02L71 12.14L66 7.27L72.91 6.26L76 0Z" fill="#FFA41C" stroke="#B20710" stroke-opacity="0.39" stroke-linecap="round" stroke-linejoin="round"/>
<path d="M98 0L101.09 6.26L108 7.27L103 12.14L104.18 19.02L98 15.77L91.82 19.02L93 12.14L88 7.27L94.91 6.26L98 0Z" fill="#FFA41C" stroke="#B20710" stroke-opacity="0.39" stroke-linecap="round" stroke-linejoin="round"/>
</g>
<defs>
<clipPath id="clip0_795_149">
<rect width="108" height="20" fill="white"/>
</clipPath>
</defs>
</svg>
