<svg width="30" height="30" viewBox="0 0 30 30" fill="none" xmlns="http://www.w3.org/2000/svg">
<rect width="30" height="30" rx="15" fill="#3A6775"/>
<path d="M20.4 20.7V19.4C20.4 18.7105 20.1261 18.0492 19.6385 17.5616C19.1509 17.074 18.4896 16.8 17.8 16.8H12.6C11.9104 16.8 11.2491 17.074 10.7615 17.5616C10.2739 18.0492 10 18.7105 10 19.4V20.7" stroke="white" stroke-width="1.3" stroke-linecap="round" stroke-linejoin="round"/>
<path d="M15.2 14.2C16.6359 14.2 17.8 13.0359 17.8 11.6C17.8 10.1641 16.6359 9 15.2 9C13.7641 9 12.6 10.1641 12.6 11.6C12.6 13.0359 13.7641 14.2 15.2 14.2Z" stroke="white" stroke-width="1.3" stroke-linecap="round" stroke-linejoin="round"/>
</svg>
